<svg xmlns="http://www.w3.org/2000/svg" viewBox="0 0 32 32"><g transform="translate(3574.161 -493.305)" fill="#53d86a" class="color000000 svgShape"><path fill="#167ffc" d="m -3554.4114,500.82397 h 1.7502 v 3.60183 h -1.7502 z" class="color91a6b8 svgShape"></path><path fill="#595bd4" fill-rule="evenodd" style="line-height:normal;font-variant-ligatures:normal;font-variant-position:normal;font-variant-caps:normal;font-variant-numeric:normal;font-variant-alternates:normal;font-feature-settings:normal;text-indent:0;text-align:start;text-decoration-line:none;text-decoration-style:solid;text-decoration-color:#000;text-transform:none;text-orientation:mixed;shape-padding:0;isolation:auto;mix-blend-mode:normal" d="m -3566.1621,495.31142 a 0.50005006,0.50005006 0 0 0 -0.5,0.5 v 2.49414 h -1.4922 a 0.50004997,0.50004997 0 0 0 -0.5,0.5 v 2 a 0.50004997,0.50004997 0 0 0 0.5,0.5 h 1.4922 v 21.49219 a 0.50005006,0.50005006 0 0 0 0.5,0.5 h 2.0019 a 0.50005006,0.50005006 0 0 0 0.5,-0.5 v -16.10352 l 5.3575,-5.38867 h 10.1347 a 0.50004997,0.50004997 0 0 0 0.5,-0.5 v -2 a 0.50004997,0.50004997 0 0 0 -0.5,-0.5 h -15.4922 v -2.49414 a 0.50005006,0.50005006 0 0 0 -0.5,-0.5 z m 2.5019,5.99414 h 1.1504 l -1.1504,1.15234 z" color="#000" font-family="sans-serif" font-weight="400" overflow="visible" class="color586597 svgShape"></path><path fill="#f6c490" fill-rule="evenodd" style="line-height:normal;font-variant-ligatures:normal;font-variant-position:normal;font-variant-caps:normal;font-variant-numeric:normal;font-variant-alternates:normal;font-feature-settings:normal;text-indent:0;text-align:start;text-decoration-line:none;text-decoration-style:solid;text-decoration-color:#000;text-transform:none;text-orientation:mixed;shape-padding:0;isolation:auto;mix-blend-mode:normal" d="m -3565.6621,496.31142 h 1.0019 v 1.99414 h -1.0019 z" color="#000" font-family="sans-serif" font-weight="400" overflow="visible" class="colorf6c490 svgShape"></path><path fill="#fbc790" fill-rule="evenodd" style="line-height:normal;font-variant-ligatures:normal;font-variant-position:normal;font-variant-caps:normal;font-variant-numeric:normal;font-variant-alternates:normal;font-feature-settings:normal;text-indent:0;text-align:start;text-decoration-line:none;text-decoration-style:solid;text-decoration-color:#000;text-transform:none;text-orientation:mixed;shape-padding:0;isolation:auto;mix-blend-mode:normal" d="m -3567.6543,499.30556 h 18.9863 v 1 h -18.9863 z" color="#000" font-family="sans-serif" font-weight="400" overflow="visible" class="colorfbb490 svgShape"></path><path fill="#f6c490" fill-rule="evenodd" style="line-height:normal;font-variant-ligatures:normal;font-variant-position:normal;font-variant-caps:normal;font-variant-numeric:normal;font-variant-alternates:normal;font-feature-settings:normal;text-indent:0;text-align:start;text-decoration-line:none;text-decoration-style:solid;text-decoration-color:#000;text-transform:none;text-orientation:mixed;shape-padding:0;isolation:auto;mix-blend-mode:normal" d="m -3565.6621,501.30556 h 1.0019 v 20.99219 h -1.0019 z" color="#000" font-family="sans-serif" font-weight="400" overflow="visible" class="colorf6c490 svgShape"></path><path fill="#fe9526" fill-rule="evenodd" style="line-height:normal;font-variant-ligatures:normal;font-variant-position:normal;font-variant-caps:normal;font-variant-numeric:normal;font-variant-alternates:normal;font-feature-settings:normal;text-indent:0;text-align:start;text-decoration-line:none;text-decoration-style:solid;text-decoration-color:#000;text-transform:none;text-orientation:mixed;shape-padding:0;isolation:auto;mix-blend-mode:normal" d="m -3561.0957,501.30556 h 1.3828 l -3.9473,3.9707 v -1.40429 z" color="#000" font-family="sans-serif" font-weight="400" overflow="visible" class="colorfbd67e svgShape"></path><path fill="#595bd4" fill-rule="evenodd" style="line-height:normal;font-variant-ligatures:normal;font-variant-position:normal;font-variant-caps:normal;font-variant-numeric:normal;font-variant-alternates:normal;font-feature-settings:normal;text-indent:0;text-align:start;text-decoration-line:none;text-decoration-style:solid;text-decoration-color:#000;text-transform:none;text-orientation:mixed;shape-padding:0;isolation:auto;mix-blend-mode:normal" d="M-3552.668 500.67578a.50005.50005 0 0 0-.4922.50781v3.24219a.50005.50005 0 0 0 .8067.39453l1.0273-.79883a.50005.50005 0 1 0-.6133-.78906l-.2207.17188v-2.22071a.50005.50005 0 0 0-.5078-.50781zM-3554.2891 505.42578a.50005.50005 0 1 0 0 1h1.4844a.50005.50005 0 1 0 0-1zM-3554.2891 506.92578a.50005.50005 0 1 0 0 1h1.4844a.50005.50005 0 1 0 0-1z" color="#000" font-family="sans-serif" font-weight="400" overflow="visible" class="color586597 svgShape"></path><path fill="#595bd4" style="line-height:normal;font-variant-ligatures:normal;font-variant-position:normal;font-variant-caps:normal;font-variant-numeric:normal;font-variant-alternates:normal;font-feature-settings:normal;text-indent:0;text-align:start;text-decoration-line:none;text-decoration-style:solid;text-decoration-color:#000;text-transform:none;text-orientation:mixed;shape-padding:0;isolation:auto;mix-blend-mode:normal" d="m -3553.2891,507.04688 a 0.50083746,0.50083746 0 0 0 -0.4238,0.75 l 1.3164,2.375 c 0.2215,0.39974 0.4191,0.77619 0.5176,1.11328 0.098,0.33708 0.1093,0.6168 -0.016,0.92578 -0.2684,0.66373 -0.91,1.09101 -1.6289,1.09179 -0.7172,-0.003 -1.3561,-0.44032 -1.6192,-1.10742 -0.2631,-0.66711 -0.094,-1.42232 0.4278,-1.91406 a 0.50084869,0.50084869 0 1 0 -0.6875,-0.72852 c -0.8181,0.77067 -1.0844,1.96624 -0.6719,3.01172 0.4123,1.04551 1.423,1.73548 2.5469,1.74024 1.1211,0 2.1391,-0.67629 2.5606,-1.71875 0.2201,-0.54443 0.1877,-1.09789 0.047,-1.58008 -0.1408,-0.48219 -0.3789,-0.913 -0.6035,-1.31836 l -1.3164,-2.375 a 0.50083746,0.50083746 0 0 0 -0.4512,-0.26562 z" color="#000" font-family="sans-serif" font-weight="400" overflow="visible" class="color586597 svgShape"></path><path fill="#595bd4" fill-rule="evenodd" style="line-height:normal;font-variant-ligatures:normal;font-variant-position:normal;font-variant-caps:normal;font-variant-numeric:normal;font-variant-alternates:normal;font-feature-settings:normal;text-indent:0;text-align:start;text-decoration-line:none;text-decoration-style:solid;text-decoration-color:#000;text-transform:none;text-orientation:mixed;shape-padding:0;isolation:auto;mix-blend-mode:normal" d="m -3554.418,500.67578 a 0.50005,0.50005 0 0 0 -0.4941,0.50781 v 3.24219 a 0.50005,0.50005 0 1 0 1,0 v -3.24219 a 0.50005,0.50005 0 0 0 -0.5059,-0.50781 z" color="#000" font-family="sans-serif" font-weight="400" overflow="visible" class="color586597 svgShape"></path></g></svg>